<svg width="69" height="69" viewBox="0 0 69 69" fill="none" xmlns="http://www.w3.org/2000/svg">
<rect x="2.5" y="2.5" width="64" height="64" rx="17.5" stroke="#A81B1B" stroke-width="5"/>
<path d="M8.79321 20.7028V11.0917H32.1572V20.7028H27.8561V14.5432H22.0682V30.075H17.8202V14.5432H13.0943V20.7028H8.79321Z" fill="white"/>
<path d="M38.6547 30.075V11.0917H41.7876L50.2836 11.0652C53.7174 11.0652 56.3813 11.8705 58.2752 13.4812C60.1691 15.0919 61.116 17.4549 61.116 20.5701C61.116 23.6853 60.1691 26.0482 58.2752 27.6589C56.3813 29.2696 53.7174 30.075 50.2836 30.075H38.6547ZM49.9916 14.5167H42.9027V26.6235H49.9916C52.2218 26.6235 53.9121 26.1367 55.0626 25.1632C56.2131 24.1897 56.7884 22.6587 56.7884 20.5701C56.7884 18.4638 56.2131 16.9327 55.0626 15.9769C53.9121 15.0034 52.2218 14.5167 49.9916 14.5167Z" fill="white"/>
<path d="M16.9646 56.625L25.5137 37.6417H32.0716L40.6206 56.625H36.0009L34.1955 52.6159H23.3897L21.5843 56.625H16.9646ZM24.9296 49.1644H32.6556L28.9652 40.9605H28.62L24.9296 49.1644Z" fill="#A81B1B"/>
<path d="M46.1997 56.625V37.6417H50.4477V56.625H46.1997Z" fill="#A81B1B"/>
</svg>
