<svg width="702" height="155" viewBox="0 0 702 155" fill="none" xmlns="http://www.w3.org/2000/svg">
<path d="M57.5 37.5H54C32.4609 37.5 15 54.9609 15 76.5C15 98.0391 32.4609 115.5 54 115.5H214.5V130.5H54C24.1766 130.5 0 106.323 0 76.5C0 46.6766 24.1766 22.5 54 22.5H57.5V37.5ZM648 22.5C677.823 22.5 702 46.6766 702 76.5C702 106.323 677.823 130.5 648 130.5H645.5V115.5H648C669.539 115.5 687 98.0391 687 76.5C687 54.9609 669.539 37.5 648 37.5H327.5V22.5H648Z" fill="#A81B1B"/>
<path d="M234.787 144V98.24H242.339L262.819 98.176C271.097 98.176 277.518 100.117 282.083 104C286.649 107.883 288.931 113.579 288.931 121.088C288.931 128.597 286.649 134.293 282.083 138.176C277.518 142.059 271.097 144 262.819 144H234.787ZM262.115 106.496H245.027V135.68H262.115C267.491 135.68 271.566 134.507 274.339 132.16C277.113 129.813 278.499 126.123 278.499 121.088C278.499 116.011 277.113 112.32 274.339 110.016C271.566 107.669 267.491 106.496 262.115 106.496ZM294.71 144V98.24H304.95V144H294.71ZM335.529 144.32C327.721 144.32 321.62 142.379 317.225 138.496C312.873 134.571 310.697 128.768 310.697 121.088C310.697 113.451 312.916 107.691 317.353 103.808C321.833 99.8827 328.319 97.92 336.809 97.92H361.129V106.24H337.513C331.924 106.24 327.785 107.413 325.097 109.76C322.452 112.107 321.129 115.883 321.129 121.088C321.129 126.037 322.303 129.707 324.649 132.096C326.996 134.443 330.431 135.723 334.953 135.936V118.144H363.625V144.32H335.529ZM344.553 136H353.385V126.464H344.553V136ZM371.93 144V98.24H422.106V106.56H382.17V116.672H418.394V124.992H382.17V135.68H422.106V144H371.93ZM427.005 144.32V136L463.806 136.064C465.683 136.064 467.112 135.637 468.093 134.784C469.118 133.888 469.63 132.459 469.63 130.496C469.63 128.533 469.118 127.125 468.093 126.272C467.112 125.376 465.683 124.928 463.806 124.928H440.893C436.157 124.928 432.467 123.797 429.821 121.536C427.219 119.232 425.917 115.861 425.917 111.424C425.917 106.987 427.219 103.637 429.821 101.376C432.467 99.072 436.157 97.92 440.893 97.92H476.861V106.24L441.981 106.176C440.147 106.176 438.717 106.603 437.693 107.456C436.669 108.267 436.157 109.589 436.157 111.424C436.157 113.259 436.669 114.603 437.693 115.456C438.717 116.267 440.147 116.672 441.981 116.672H464.894C469.63 116.672 473.299 117.845 475.902 120.192C478.547 122.496 479.869 125.931 479.869 130.496C479.869 135.019 478.547 138.453 475.902 140.8C473.299 143.147 469.63 144.32 464.894 144.32H427.005ZM484.05 121.408V98.24H540.37V121.408H530.002V106.56H516.05V144H505.81V106.56H494.418V121.408H484.05Z" fill="white"/>
<path d="M540.057 144V134.848H550.297V144H540.057ZM554.28 144L574.888 98.24H590.696L611.304 144H600.168L595.816 134.336H569.768L565.416 144H554.28ZM573.48 126.016H592.104L583.208 106.24H582.376L573.48 126.016ZM615.793 144V98.24H626.033V144H615.793Z" fill="#A81B1B"/>
<path d="M75.38 30.408V7.24H131.7V30.408H121.332V15.56H107.38V53H97.14V15.56H85.748V30.408H75.38ZM138.403 53V7.24H188.579V15.56H148.643V25.672H184.867V33.992H148.643V44.68H188.579V53H138.403ZM191.11 53L208.262 30.152L191.11 7.24H203.59L217.35 25.992H223.238L236.998 7.24H249.478L232.326 30.152L249.478 53H236.934L223.238 34.312H217.35L203.654 53H191.11ZM252.335 30.408V7.24H308.655V30.408H298.287V15.56H284.335V53H274.095V15.56H262.703V30.408H252.335Z" fill="white"/>
</svg>
